<svg width="50" height="40" viewBox="0 0 56 46" fill="none" xmlns="http://www.w3.org/2000/svg">
<g clip-path="url(#clip0_4187_705)">
<path d="M42.5949 21.8158C43.512 21.0608 43.9029 20.2434 44.4356 19.5529C45.9391 17.5998 47.361 15.5821 48.856 13.6204C49.9042 12.2459 51.311 11.4715 53.0594 11.351C54.9345 11.2198 56.002 12.2222 56.002 14.1581C56.002 15.1498 55.6627 16.0511 55.2116 16.9179C52.327 22.4482 50.28 28.3184 48.246 34.1929C47.9195 35.1351 47.5393 36.0729 47.0582 36.942C45.9885 38.8757 44.2595 39.805 42.0879 39.6695C39.8133 39.5275 37.9833 38.5251 36.948 36.3676C36.1061 34.6102 35.5454 32.7775 35.3951 30.8222C35.3779 30.5856 35.5519 30.1597 35.1073 30.1533C34.7958 30.149 34.8366 30.5146 34.7593 30.7427C33.4298 34.5909 32.315 38.5101 30.6633 42.2529C28.4295 47.3078 22.5077 46.8755 19.7605 43.1671C17.8253 40.5557 16.7556 37.5873 16.0833 34.4446C15.6194 32.2764 15.1555 30.1081 15.0717 27.8839C15.0395 27.0171 14.6249 27.1483 14.1051 27.4559C12.3481 28.4884 11.8799 30.1877 11.8455 32.0419C11.8133 33.7993 11.3408 35.3201 10.1229 36.6344C7.40798 39.5641 2.05972 38.5165 0.717282 34.7522C0.468126 34.0531 0.264075 33.3476 0.261927 32.571C0.244744 27.9549 -0.184835 23.3388 0.105131 18.7226C0.261927 16.2317 0.0707644 13.715 0.652845 11.2456C2.01676 5.43567 6.30396 1.32073 11.9809 0.0903342C12.7348 -0.0731449 13.5488 0.0344071 14.335 0.0322561C18.663 0.027954 22.991 0.025803 27.3211 0.0322561C29.802 0.0344071 31.9907 2.26719 32.0422 4.74303C32.0809 6.63595 32.0744 8.43852 30.4592 9.85175C29.2199 10.9359 27.8109 11.3811 26.2408 11.3941C22.5571 11.4242 18.8713 11.407 15.1877 11.4113C12.913 11.4134 11.7489 12.618 11.7467 14.8443C11.7467 15.8338 12.1226 15.8187 12.9367 15.651C15.6752 15.0874 18.4632 14.883 21.2147 15.4681C23.8158 16.0188 25.4825 18.2602 25.5148 20.921C25.5319 22.3536 25.5534 23.7862 25.5878 25.2166C25.5921 25.4425 25.4288 25.7931 25.751 25.8663C26.1334 25.9523 26.1312 25.5457 26.2558 25.3048C27.6734 22.5859 28.8633 19.7465 30.5043 17.1459C31.6255 15.367 33.0023 13.8247 34.9999 12.9923C36.1361 12.519 37.3518 12.3663 38.5697 12.4954C40.5629 12.7083 41.3555 14.2012 41.8839 15.8618C42.4703 17.7074 42.64 19.6239 42.5991 21.8137L42.5949 21.8158Z" fill="white"/>
</g>
<defs>
<clipPath id="clip0_4187_705">
<rect width="56" height="46" fill="white"/>
</clipPath>
</defs>
</svg>
