<svg width="300" height="245" viewBox="0 0 300 245" fill="none" xmlns="http://www.w3.org/2000/svg">
<g clip-path="url(#clip0_4187_705)">
<path d="M228.187 116.193C233.101 112.172 235.195 107.818 238.049 104.141C246.103 93.7382 253.721 82.9919 261.729 72.5435C267.344 65.2227 274.881 61.0983 284.248 60.4567C294.293 59.7579 300.012 65.0967 300.012 75.4076C300.012 80.6891 298.194 85.4895 295.777 90.1065C280.324 119.561 269.358 150.827 258.461 182.115C256.712 187.133 254.676 192.128 252.098 196.756C246.368 207.056 237.105 212.005 225.472 211.283C213.286 210.527 203.483 205.188 197.937 193.697C193.426 184.337 190.423 174.576 189.617 164.162C189.525 162.902 190.457 160.633 188.075 160.599C186.407 160.576 186.626 162.524 186.211 163.738C179.089 184.234 173.117 205.108 164.268 225.043C152.301 251.966 120.578 249.663 105.861 229.912C95.4933 216.003 89.763 200.193 86.1615 183.455C83.676 171.907 81.1906 160.359 80.7419 148.512C80.5693 143.895 78.3485 144.594 75.5639 146.233C66.1515 151.732 63.6431 160.782 63.459 170.658C63.2864 180.018 60.7549 188.118 54.2307 195.118C39.6863 210.722 11.0349 205.142 3.84328 185.093C2.50851 181.37 1.41539 177.612 1.40388 173.476C1.31183 148.89 -0.989493 124.305 0.563898 99.7186C1.40388 86.4518 0.379792 73.0476 3.49808 59.8954C10.8048 28.951 33.7719 7.03448 64.1839 0.481287C68.2227 -0.389417 72.5837 0.183415 76.7951 0.171958C99.9809 0.149045 123.167 0.137588 146.364 0.171958C159.654 0.183415 171.379 12.0754 171.655 25.262C171.863 35.3438 171.828 44.9445 163.175 52.4715C156.536 58.2456 148.987 60.6171 140.576 60.6859C120.842 60.8463 101.097 60.7546 81.3632 60.7775C69.1777 60.789 62.9412 67.2047 62.9297 79.0623C62.9297 84.3324 64.9433 84.2522 69.3043 83.3585C83.9752 80.3569 98.9108 79.2685 113.651 82.3847C127.585 85.3176 136.514 97.2554 136.687 111.427C136.779 119.057 136.894 126.688 137.078 134.306C137.101 135.509 136.227 137.377 137.953 137.766C140.001 138.224 139.989 136.059 140.657 134.776C148.251 120.295 154.626 105.172 163.417 91.3209C169.423 81.8463 176.799 73.6319 187.5 69.1981C193.587 66.6777 200.1 65.8643 206.624 66.5517C217.302 67.6859 221.548 75.6368 224.379 84.4813C227.52 94.3111 228.429 104.519 228.21 116.182L228.187 116.193Z" fill="#6366f1"/>
</g>
<defs>
<clipPath id="clip0_4187_705">
<rect width="300" height="245" fill="white"/>
</clipPath>
</defs>
</svg>
