<?xml version="1.0" encoding="utf-8"?>
<!-- Generator: Adobe Illustrator 16.0.0, SVG Export Plug-In . SVG Version: 6.00 Build 0)  -->
<!DOCTYPE svg PUBLIC "-//W3C//DTD SVG 1.1//EN" "http://www.w3.org/Graphics/SVG/1.1/DTD/svg11.dtd">
<svg version="1.1" id="Layer_1" xmlns="http://www.w3.org/2000/svg" xmlns:xlink="http://www.w3.org/1999/xlink" x="0px" y="0px"
	 width="1568px" height="1400px" viewBox="0 0 1568 1400" enable-background="new 0 0 1568 1400" xml:space="preserve">
<g>
	<path fill="#3A9CE8" d="M0,0v1143.9h1568V0H0z M501.6,1058.9H72.9V118h428.6V1058.9z M998.3,1058.9H569.7V118h428.6V1058.9z
		 M1495.1,1058.9h-428.6V118h428.6V1058.9z"/>
	<path fill="#3081BF" d="M72.9,1058.9h428.6V118H72.9V1058.9z M101.4,918.4V623.2V507.1V355V146.5h192.9h140.6h38.1v74.9v295.3
		v262.3v97.4v154H330.6h-90.1H101.4V918.4z"/>
	<g>
		<polygon fill="#87E8FF" points="473.1,778.9 473.1,516.6 101.4,918.4 101.4,1030.4 240.5,1030.4 		"/>
		<polygon fill="#87E8FF" points="473.1,1030.4 473.1,876.4 330.6,1030.4 		"/>
		<polygon fill="#B0F0FF" points="330.6,1030.4 473.1,876.4 473.1,778.9 240.5,1030.4 		"/>
		<polygon fill="#B0F0FF" points="473.1,221.4 101.4,623.2 101.4,918.4 473.1,516.6 		"/>
		<polygon fill="#87E8FF" points="473.1,146.5 434.9,146.5 101.4,507.1 101.4,623.2 473.1,221.4 		"/>
		<polygon fill="#B0F0FF" points="294.3,146.5 101.4,355 101.4,507.1 434.9,146.5 		"/>
		<polygon fill="#87E8FF" points="101.4,146.5 101.4,355 294.3,146.5 		"/>
		<polygon fill="#87E8FF" points="969.8,770 969.8,507.7 598.2,909.6 598.2,1030.4 729.1,1030.4 		"/>
		<polygon fill="#87E8FF" points="969.8,1030.4 969.8,867.5 819.2,1030.4 		"/>
		<polygon fill="#B0F0FF" points="819.2,1030.4 969.8,867.5 969.8,770 729.1,1030.4 		"/>
		<polygon fill="#87E8FF" points="969.8,146.5 923.5,146.5 598.2,498.2 598.2,614.3 969.8,212.5 		"/>
		<polygon fill="#B0F0FF" points="782.9,146.5 598.2,346.1 598.2,498.2 923.5,146.5 		"/>
		<polygon fill="#87E8FF" points="598.2,146.5 598.2,346.1 782.9,146.5 		"/>
		<polygon fill="#B0F0FF" points="969.8,212.5 598.2,614.3 598.2,909.6 969.8,507.7 		"/>
		<polygon fill="#87E8FF" points="1466.6,761.9 1466.6,499.6 1095,901.4 1095,1030.4 1218.3,1030.4 		"/>
		<polygon fill="#87E8FF" points="1466.6,1030.4 1466.6,859.3 1308.4,1030.4 		"/>
		<polygon fill="#B0F0FF" points="1466.6,204.3 1095,606.2 1095,901.4 1466.6,499.6 		"/>
		<polygon fill="#B0F0FF" points="1308.4,1030.4 1466.6,859.3 1466.6,761.9 1218.3,1030.4 		"/>
		<polygon fill="#B0F0FF" points="1272.1,146.5 1095,338 1095,490 1412.7,146.5 		"/>
		<polygon fill="#87E8FF" points="1095,146.5 1095,338 1272.1,146.5 		"/>
		<polygon fill="#87E8FF" points="1466.6,146.5 1412.7,146.5 1095,490 1095,606.2 1466.6,204.3 		"/>
	</g>
	<polygon opacity="0.3" fill="#36B8FF" points="1330.6,540.2 1330.6,594.8 1284.5,594.8 1284.5,415 1204.3,415 1204.3,319.8 
		1094.4,319.8 1094.4,1015.7 969.8,1015.7 969.8,237.6 957.9,237.6 957.9,197.6 901.8,197.6 901.8,237.6 835.6,237.6 835.6,387.9 
		777.5,387.9 777.5,259.7 693.4,259.7 693.4,550.2 657.3,550.2 657.3,451 597.7,451 597.7,1015.7 473.1,1015.7 473.1,211.6 
		416.9,211.6 416.9,387.9 310.7,387.9 310.7,588.3 278.6,588.3 278.6,468.1 194.5,468.1 194.5,532.2 100.3,532.2 100.3,629.1 
		100.3,1030.4 208.5,1030.4 1466.8,1030.4 1466.8,756.6 1466.8,629.1 1466.8,540.2 	"/>
	<path fill="#3081BF" d="M569.7,1058.9h428.6V118H569.7V1058.9z M598.2,909.6V614.3V498.2v-152V146.5h184.7h140.6h46.3v66v295.3V770
		v97.4v162.9H819.2h-90.1H598.2V909.6z"/>
	<path fill="#3081BF" d="M1066.5,1058.9h428.6V118h-428.6V1058.9z M1095,901.4V606.2V490V338V146.5h177.2h140.6h53.8v57.9v295.3
		v262.3v97.4v171h-158.1h-90.1H1095V901.4z"/>
	<rect y="1117.2" fill="#E6B574" width="1568" height="26.7"/>
	<rect y="1143.9" fill="#007D77" width="1568" height="256.1"/>
	<path fill="#006E67" d="M1384.1,1306c0,16.2-13.2,29.4-29.4,29.4H196.9c-16.2,0-29.4-13.2-29.4-29.4l0,0
		c0-16.2,13.2-29.4,29.4-29.4h1157.8C1370.9,1276.6,1384.1,1289.8,1384.1,1306L1384.1,1306z"/>
	<g>
		<path fill="#3B6382" d="M751,1058.8c0-15.7-12.7-28.4-28.4-28.4H430.7c-15.7,0-28.4,12.7-28.4,28.4l0,0
			c0,15.7,12.7,28.4,28.4,28.4h291.8C738.3,1087.2,751,1074.4,751,1058.8L751,1058.8z"/>
		<g>
			<path fill="#6B696E" d="M605.6,1193.9v-19.3h-21.7h0h-21.7v19.3c0,0-97.5,9.6-127.8,55.5l18.9,3.1c0,0,19.1-33.3,117.9-36v41.8
				h25.3v-41.8c98.8,2.7,117.9,36,117.9,36l18.9-3.1C703.1,1203.6,605.6,1193.9,605.6,1193.9z"/>
			<path fill="#8A888D" d="M459.2,1265.9c0,13.7-11.1,24.8-24.8,24.8c-13.7,0-24.8-11.1-24.8-24.8c0-13.7,11.1-24.8,24.8-24.8
				C448.1,1241.1,459.2,1252.2,459.2,1265.9z"/>
			<path fill="#8A888D" d="M608.7,1265.9c0,13.7-11.1,24.8-24.8,24.8s-24.8-11.1-24.8-24.8c0-13.7,11.1-24.8,24.8-24.8
				S608.7,1252.2,608.7,1265.9z"/>
			<path fill="#8A888D" d="M708.6,1265.9c0,13.7,11.1,24.8,24.8,24.8c13.7,0,24.8-11.1,24.8-24.8c0-13.7-11.1-24.8-24.8-24.8
				C719.7,1241.1,708.6,1252.2,708.6,1265.9z"/>
		</g>
		<g>
			<g>
				<path fill="#3B6382" d="M425.6,877.2l-44.8-234.9c-3.4-17.8-20.5-29.4-38.3-26.1c-17.8,3.4-29.4,20.6-26.1,38.3l44.8,234.9
					c3.4,17.8,20.5,29.4,38.3,26C417.4,912.2,429,895,425.6,877.2z"/>
				<path fill="#355874" d="M560.5,574.7l-217.9,41.6c17.8-3.4,34.9,8.3,38.3,26.1l44.8,234.9c3.4,17.8-8.3,34.9-26,38.3L617.5,874
					c17.8-3.4,29.4-20.5,26.1-38.3l-44.8-234.9C595.4,583,578.2,571.3,560.5,574.7z"/>
			</g>
			<path fill="#2D4B63" d="M575.2,662.5c1.1,5.5-2.6,10.9-8.1,11.9l-129.6,24.7c-5.5,1.1-10.9-2.6-11.9-8.1l0,0
				c-1.1-5.5,2.6-10.9,8.1-11.9l129.6-24.7C568.8,653.4,574.1,657,575.2,662.5L575.2,662.5z"/>
			<path fill="#2D4B63" d="M588.9,734.7c1.1,5.5-2.6,10.9-8.1,11.9l-129.6,24.7c-5.5,1.1-10.9-2.6-11.9-8.1l0,0
				c-1.1-5.5,2.6-10.9,8.1-11.9L577,726.6C582.6,725.6,587.9,729.2,588.9,734.7L588.9,734.7z"/>
			<path fill="#2D4B63" d="M602.7,806.9c1.1,5.5-2.6,10.9-8.1,11.9L465,843.6c-5.5,1.1-10.9-2.6-11.9-8.1l0,0
				c-1.1-5.5,2.6-10.9,8.1-11.9l129.6-24.7C596.3,797.8,601.7,801.4,602.7,806.9L602.7,806.9z"/>
		</g>
		<rect x="189.8" y="867" fill="#8A888D" width="349.3" height="390.6"/>
		<rect x="1012.5" y="867" fill="#8A888D" width="349.3" height="390.6"/>
		<rect x="539.1" y="867" fill="#7A787D" width="473.3" height="204.6"/>
		<rect x="221.3" y="1257.7" fill="#7A787D" width="80.6" height="33.1"/>
		<rect x="427" y="1257.7" fill="#7A787D" width="80.6" height="33.1"/>
		<rect x="1044" y="1257.7" fill="#7A787D" width="80.6" height="33.1"/>
		<rect x="1249.6" y="1257.7" fill="#7A787D" width="80.6" height="33.1"/>
		<path fill="#FFEEB1" d="M1407.2,850.5c0-9.1-7.4-16.5-16.5-16.5H160.9c-9.1,0-16.5,7.4-16.5,16.5l0,0c0,9.1,7.4,16.5,16.5,16.5
			h1229.8C1399.8,867,1407.2,859.6,1407.2,850.5L1407.2,850.5z"/>
		<polygon fill="#7F7D82" points="539.1,885.6 189.8,876.3 189.8,867 539.1,867 		"/>
		<polygon fill="#706E73" points="1012.5,885.6 539.1,876.3 539.1,867 1012.5,867 		"/>
		<polygon fill="#7F7D82" points="1361.8,885.6 1012.5,876.3 1012.5,867 1361.8,867 		"/>
		<rect x="221.3" y="1257.7" fill="#706E73" width="80.6" height="8.8"/>
		<rect x="427" y="1257.7" fill="#706E73" width="80.6" height="8.8"/>
		<rect x="1044" y="1257.7" fill="#706E73" width="80.6" height="8.8"/>
		<rect x="1249.6" y="1257.7" fill="#706E73" width="80.6" height="8.8"/>
		<rect x="571.5" y="1087.2" fill="#E6E7E8" width="24.8" height="87.5"/>
	</g>
	<g>
		<g>
			<path fill="#E6E7E8" d="M925.6,740.8c16.4,0,15.9-20.3,15.9-20.3V453.9c-2.6-1-5.4-1.6-8.4-1.6H568.8
				c-12.8,0-23.2,10.4-23.2,23.2v257.6c0,2.7,0.5,5.3,1.3,7.7h255.6H925.6z"/>
			<path fill="#DCDDDE" d="M941.6,453.9v266.6c0,0,0.5,20.3-15.9,20.3H802.5H546.9c3.2,9,11.7,15.5,21.8,15.5h364.5
				c12.8,0,23.2-10.4,23.2-23.2V475.5C956.4,465.7,950.2,457.3,941.6,453.9z"/>
		</g>
		<polygon fill="#DCDDDE" points="774.8,756.3 783.5,576.9 791.6,586.3 806.4,756.3 		"/>
		<path fill="#FFFFFF" d="M784.9,820.7c5.3,0,9.5-4.3,9.3-9.6l-8.1-227.8c-0.2-5.3-4.7-9.7-10-9.7h-50.2c-5.3,0-9.8,4.3-10,9.7
			L707.7,811c-0.2,5.3,4,9.6,9.3,9.6H784.9z"/>
		<rect x="678.1" y="811.3" fill="#E6E7E8" width="145.8" height="22.6"/>
	</g>
	<g>
		<path fill="#808285" d="M1276.7,686.8l-86.4,138.4c-4.9-3.3-10.4-5.7-16.2-7.3l87.6-140.2C1265.6,682,1270.8,685.2,1276.7,686.8z"
			/>
		<path fill="#E6E7E8" d="M1254.3,648.9c1.4-5.9,4.5-11.2,8.8-15.3c5.7-5.4,13.3-8.8,21.8-8.8c17.4,0,31.5,14.1,31.5,31.5
			c0,17.4-14.1,31.5-31.5,31.5c-2.8,0-5.5-0.4-8.1-1.1c-5.9-1.6-11.1-4.8-15.1-9.2c-5.1-5.6-8.3-13.1-8.3-21.3
			C1253.3,653.8,1253.7,651.3,1254.3,648.9z"/>
		<path fill="#808285" d="M1164,579.5l99,54.1c-4.3,4.1-7.4,9.4-8.8,15.3L1153.8,594l3.7-3.7C1160.7,587.2,1162.8,583.4,1164,579.5z
			"/>
		<path fill="#FFFFFF" d="M1139.9,496.5c10.2-10.2,26.7-10.2,36.9,0c7.1,7.1,9.2,17.2,6.5,26.1c-1.2,4-3.4,7.7-6.5,10.9l-3.7,3.7
			l-13.2,13.2c-4.1-7.7-9.4-14.9-15.8-21.3c-6.4-6.4-13.5-11.6-21.1-15.7L1139.9,496.5z"/>
		<path fill="#CDCECF" d="M1269,656.3c0,8.7,7.1,15.8,15.8,15.8s15.8-7.1,15.8-15.8c0-8.7-7.1-15.8-15.8-15.8S1269,647.6,1269,656.3
			z"/>
		<g>
			<path fill="#FFFFFF" d="M1123.1,513.3c7.6,4.1,14.7,9.3,21.1,15.7c6.5,6.5,11.7,13.7,15.8,21.3c12.7,23.7,14,51.7,4.1,76.3
				l-142.3-102.8C1050.7,499.5,1091,495.9,1123.1,513.3z"/>
			<path fill="#F0F0F0" d="M1164.2,626.6c-3.9,9.8-9.6,19.2-17.2,27.4l-39.5-39.5l-48.9-48.9l-39.5-39.5c0.9-0.8,1.9-1.6,2.8-2.3
				L1164.2,626.6z"/>
		</g>
		<path fill="#FFFFFF" d="M1324,819.7c0-7.9-6.4-14.3-14.3-14.3h-131.3c-7.9,0-14.3,6.4-14.3,14.3l0,0c0,7.9,6.4,14.3,14.3,14.3
			h131.3C1317.6,834,1324,827.6,1324,819.7L1324,819.7z"/>
	</g>
	<g>
		<g>
			<path fill="#FFFFFF" d="M357.1,813.4v-85h-83.4v96.9h73.1C346.7,825.3,357.1,824.2,357.1,813.4z"/>
			<path fill="#F0F0F0" d="M357.1,728.4v85c0,10.9-10.4,11.9-10.4,11.9h-73.1v8.7h91.3V728.4H357.1z"/>
		</g>
		<g>
			<path fill="#FFFFFF" d="M377.9,751.7h-13v9.9h13c6.7,0,12.1,5.4,12.1,12.1v15c0,6.7-5.4,12.1-12.1,12.1h-13v9.9h13
				c12.1,0,22-9.9,22-22v-15C399.9,761.5,390.1,751.7,377.9,751.7z"/>
		</g>
	</g>
	<rect x="849.4" y="822.6" fill="#FFFFFF" width="258.7" height="10.5"/>
</g>
</svg>
